<?xml version="1.0" standalone="no"?>
<!DOCTYPE svg PUBLIC "-//W3C//DTD SVG 20010904//EN"
 "http://www.w3.org/TR/2001/REC-SVG-20010904/DTD/svg10.dtd">
<svg version="1.0" xmlns="http://www.w3.org/2000/svg"
 width="1280.000000pt" height="710.000000pt" viewBox="0 0 1280.000000 710.000000"
 preserveAspectRatio="xMidYMid meet">
<metadata>
Created by potrace 1.15, written by Peter Selinger 2001-2017
</metadata>
<g transform="translate(0.000000,710.000000) scale(0.100000,-0.100000)"
fill="#afa04c" stroke="none">
<path d="M10070 7081 c-97 -27 -174 -70 -327 -184 -76 -57 -176 -130 -223
-162 -156 -108 -247 -184 -351 -293 -167 -174 -196 -255 -145 -401 31 -89 35
-185 10 -234 -54 -104 -263 -276 -492 -404 l-64 -36 -149 17 c-82 9 -153 15
-158 12 -4 -3 -33 -47 -63 -98 -46 -77 -60 -112 -81 -205 -15 -63 -41 -142
-61 -180 -30 -61 -50 -83 -173 -189 -76 -66 -442 -383 -813 -703 -371 -321
-687 -595 -702 -609 l-27 -25 -129 42 c-72 22 -135 41 -142 41 -7 0 -49 -32
-93 -72 -105 -92 -184 -143 -249 -158 -34 -9 -93 -11 -177 -7 -107 4 -152 12
-306 52 -366 96 -383 99 -1170 190 -423 49 -585 70 -1125 145 -195 27 -440 61
-544 75 -299 40 -1054 123 -1241 136 -217 15 -685 6 -767 -14 -224 -57 -347
-214 -293 -376 27 -81 92 -159 257 -304 250 -221 372 -308 718 -514 365 -217
527 -307 941 -518 515 -264 553 -285 1079 -612 500 -310 740 -427 1280 -619
302 -108 657 -211 1240 -359 245 -63 540 -141 655 -175 736 -215 886 -254
1123 -294 294 -50 571 -57 797 -22 154 24 233 63 462 228 156 112 246 161 346
187 150 39 232 44 612 38 397 -6 537 2 685 39 176 44 218 73 418 291 130 142
176 168 286 161 127 -8 260 -85 326 -188 40 -62 44 -134 11 -198 -24 -46 -29
-49 -141 -67 -69 -12 -89 -19 -107 -40 -28 -32 -28 -57 -4 -111 19 -42 64 -77
123 -96 18 -5 130 -14 248 -18 182 -7 248 -14 425 -46 199 -36 221 -38 415
-37 337 0 475 27 544 103 73 81 59 150 -53 260 -92 91 -185 154 -347 236 -147
74 -341 139 -699 234 -458 121 -495 132 -805 260 -400 164 -857 362 -1350 585
-153 69 -252 106 -342 131 -152 40 -222 73 -243 114 -31 60 -18 93 77 198 27
30 60 75 75 100 25 41 28 56 27 137 0 73 -4 98 -22 132 -39 75 -78 85 -211 57
-57 -12 -33 16 50 58 53 27 92 56 138 105 111 118 147 233 137 443 -6 146 -23
224 -70 325 -61 133 -138 225 -246 294 -93 60 -172 83 -286 82 -127 -1 -157
12 -189 81 -13 29 -31 84 -40 121 -15 66 -15 76 10 250 l27 182 71 66 c40 36
88 79 107 96 l35 31 -17 98 -17 99 24 35 c48 69 235 269 319 341 48 41 117 91
154 111 79 44 120 47 232 18 41 -11 87 -20 101 -20 45 0 122 28 204 76 44 26
161 87 259 136 99 49 211 110 250 135 164 106 338 329 380 488 25 92 31 275
13 362 -34 158 -129 301 -232 349 -60 28 -115 30 -205 5z m-2274 -2753 c26
-40 30 -61 60 -310 18 -147 38 -330 44 -407 l12 -141 -46 -53 -46 -54 10 -124
c5 -68 8 -124 7 -126 -2 -1 -25 4 -52 13 -50 15 -51 15 -148 -23 l-99 -38
-121 -172 c-85 -120 -126 -172 -137 -168 -8 2 -94 20 -190 40 -114 23 -224 53
-316 86 l-142 51 -27 84 c-14 46 -32 84 -38 84 -7 0 -46 -6 -87 -14 -41 -8
-75 -14 -76 -13 -1 1 3 28 9 60 l10 58 664 604 c365 333 668 605 672 605 5 0
21 -19 37 -42z m-1948 -1384 c13 -9 60 -29 104 -45 123 -45 121 -41 37 -87
-199 -110 -261 -174 -416 -433 -58 -97 -127 -203 -154 -236 -73 -89 -206 -193
-452 -351 -262 -169 -285 -187 -442 -332 -193 -179 -277 -226 -441 -250 -142
-21 -244 17 -244 90 0 66 131 280 268 436 89 101 270 262 377 333 111 75 167
104 389 201 379 165 416 190 671 443 171 170 256 247 274 247 4 0 17 -7 29
-16z"/>
</g>
</svg>
