<svg xmlns="http://www.w3.org/2000/svg" viewBox="0 0 214.4 49.8"><path d="M35.6 35.9c.9-1.5 1.7-3 2.3-4.6L31 24.5l2.2-2.2 5.5 5.5c0-.4.1-.8.1-1.1V21l-2.1-2.1 2.1-2.1V9.9l-5.5 5.5-2.1-2.1 7.6-7.6V0h-1.1l-9.9 9.9L22.9 5l4.8-5h-6.9l-1.5 1.5L17.8 0H9.5L8 1.5 6.5 0H0v.3l4.6 4.6L0 9.6V17l1.9 1.9-2 2v5.2c0 .7.1 1.4.2 2.1l4.6 4.6-2.1 2.1c.8 1.4 1.8 2.8 2.8 4.1l2.7-2.7 2.1 2.1-2.9 2.9c1.1 1.2 2.3 2.4 3.4 3.5l2.9-2.9 8.1 8.1c1.1-.8 2.4-1.8 3.9-3l-8.5-8.5 2.1-2.1 8.6 8.6c1.2-1.1 2.3-2.2 3.5-3.4L22.7 33l4.9-4.9 8 7.8zM13.7 2.7l2.2 2.2-2.2 2.2-2.2-2.2 2.2-2.2zM8 8.4l2.2 2.2-4.9 4.9-2.2-2.2L8 8.4zm.2 21l-4.9-4.9 2.1-2.1 4.9 4.9-2.1 2.1zm.6-10.5l4.9-4.9 4.9 4.9-4.9 4.9-4.9-4.9zm4.9 16l-2.1-2.1 2.1-2.1 2.1 2.1-2.1 2.1zm5.5-5.5l-2.1-2.1 4.9-4.9 2.1 2.1-4.9 4.9zM22 15.5l-4.9-4.9 2.2-2.2 4.9 4.9-2.2 2.2zm5.7 1.3l2.1 2.1-2.3 2.1-2-2 2.2-2.2zm33.4.6H61l-.5 7.2h1.2v2h-5.4v-2h1.6l.6-9.3h-1.6v-2h4.8l2.6 6.3c.2.5.7 2.4.7 2.4h.3s.6-1.9.8-2.4l2.6-6.3h4.7v2h-1.6l.5 9.3h1.6v2h-5.4v-2h1.2l-.5-7.2h-.1L66 25.5h-1.8l-3.1-8.1zm21.6 3h3.5L84.8 17c-.1-.2-.4-1-.4-1h-.1s-.3.8-.3 1l-1.3 3.4zm7.6 4.2h1.4v2h-5.4v-2h1.5s-.4-1-.9-2.2h-5c-.5 1.2-.8 2.2-.8 2.2h1.5v2h-5.4v-2h1.4l3.6-9.3h-1.7v-2h5.2l4.6 11.3zm12.8-6.2V18c0-1.4-1-2.6-2.8-2.6-2 0-3.5 1.2-3.5 4.7s1.5 4.6 3.5 4.6c1.9 0 2.7-.8 2.7-2.4h2.5v.4c0 2.1-1.4 4.2-5.4 4.2-3.6 0-5.9-2.1-5.9-6.8 0-4.7 2.3-6.8 5.9-6.8 3.8 0 5.4 2.2 5.4 4.4v.8h-2.4zm11.1 2h3.5l-1.3-3.5c-.1-.2-.4-1-.4-1h-.1s-.3.8-.3 1l-1.4 3.5zm7.6 4.2h1.4v2h-5.4v-2h1.5s-.4-1-.9-2.2h-5c-.5 1.2-.8 2.2-.8 2.2h1.5v2h-5.4v-2h1.4l3.6-9.3H112v-2h5.2l4.6 11.3zm5 2v-2h1.7v-9.3h-1.7v-2h5.8v2H131v9.2h4.3v-2.2h2l-.2 4.3zm14.6 0v-2h1.6v-9.3h-1.6v-2H152l.1 4H150v-2h-4.5v3.6h3.8v2h-3.8v3.6h4.4v-2h2.2l-.1 4.1zm17.8-4.2v.3c0 1.1.9 1.8 2.3 1.8 1.8 0 2.4-.6 2.4-1.5 0-2.8-7.5-1.1-7.5-6.2 0-1.9 1.5-3.8 4.9-3.8 3.4 0 4.8 1.6 4.8 3.5v.9h-2.5v-.3c0-1.1-.7-1.9-2.3-1.9-1.4 0-2.3.6-2.3 1.6 0 2.9 7.4 1.1 7.4 6.1 0 2.1-1.5 3.8-4.9 3.8-3.7 0-5-1.7-5-3.5v-.9h2.7zm14.5 4.2v-2h1.6v-9.3h-3v2h-1.9v-4h12.3v4h-1.9v-2h-3v9.3h1.7v2zm13 0v-2h1.6v-9.3h-1.6v-2h10.7l.1 4h-2.2v-2h-4.5v3.6h3.8v2h-3.8v3.6h4.5v-2h2.1l-.1 4.1zm21.6-6.9c1.6 0 2.5-.6 2.5-2.2 0-1.5-1.1-2.1-2.6-2.1h-2.1v4.4h2.2zm-6.3 6.9v-2h1.6v-9.3H202v-2h6.8c2.7 0 4.6 1.5 4.6 4.1 0 2.2-1.1 3.3-2.5 3.8v.1s.2.2.3.4l1.7 2.9h1.6v2h-3.3l-2.6-4.9h-2.4v2.8h2.1v2H202z" fill="#fff"/></svg>